<?xml version="1.0" encoding="utf-8"?>
<svg xmlns="http://www.w3.org/2000/svg" fill="none" height="318" viewBox="0 0 1921 318" width="1921">
<path d="M1920.6 1.5H1865.31L1820.07 36.825L1784.89 136.258H1749.71L1709.5 222.608H1674.31L1629.08 227.842L1598.92 250.083L1568.76 227.842L1508.45 237L1473.27 273.633H1453.16L1407.93 237H1367.72L1317.46 218.683L1282.27 264.475L1247.09 240.925L1211.91 302.417L1171.7 285.408L1131.49 255.317L1086.25 295.875H1046.04L1020.91 306.342L975.676 285.408L930.44 291.95L895.257 310.267L860.073 315.5L824.89 295.875L784.681 310.267L749.498 295.875L714.314 310.267L669.079 295.875H623.843L583.634 315.5L548.45 302.417L503.215 315.5H468.032L437.875 310.267L382.587 315.5H287.089L241.854 295.875L201.644 315.5L166.461 310.267L131.278 315.5L45.8327 295.875L0.597002 315.5" stroke="url(#paint0_linear_3173_76034)" stroke-width="3"/>
<defs>
<linearGradient gradientUnits="userSpaceOnUse" id="paint0_linear_3173_76034" x1="-4378.54" x2="2915.78" y1="158.5" y2="158.5">
<stop offset="0.5" stop-color="#1ED760"/>
<stop offset="0.5" stop-color="#F31E00"/>
</linearGradient>
</defs>
</svg>